<?xml version="1.0"?>
<svg width="24" height="24" xmlns="http://www.w3.org/2000/svg" xmlns:svg="http://www.w3.org/2000/svg" display="inherit" enable-background="new 0 0 24 24">
 <g class="layer">
  <title>Layer 1</title>
  <path d="m10.5,12.13l-2,0l0,2.06l-2,0l0,-2.06l-2,0l0,-2.06l2,0l0,-2.06l2,0l0,2.06l2,0l0,2.06zm7,0.52c0,-0.86 -0.67,-1.55 -1.5,-1.55s-1.5,0.69 -1.5,1.55s0.67,1.55 1.5,1.55s1.5,-0.69 1.5,-1.55zm3,-3.09c0,-0.86 -0.67,-1.55 -1.5,-1.55s-1.5,0.69 -1.5,1.55s0.67,1.55 1.5,1.55s1.5,-0.69 1.5,-1.55zm-3.03,-4.49l-4.5,2.61l-0.49,0.28l-0.49,-0.28l-4.5,-2.61l-3.99,2.31l0,6.63l8.98,5.2l8.98,-5.2l0,-6.63l-3.99,-2.31m0,-1.19l4.99,2.89l0,7.84l-9.98,5.78l-9.98,-5.78l0,-7.84l4.99,-2.89l4.99,2.89l4.99,-2.89z" id="svg_2"/>
 </g>
</svg>