<?xml version="1.0"?>
<svg viewBox="0 0 24 24" xmlns="http://www.w3.org/2000/svg" xmlns:svg="http://www.w3.org/2000/svg" display="inherit">

 <g class="layer">
  <title>Layer 1</title>
  <g fill="none" fill-rule="evenodd" id="svg_12">
   <path d="m1.13,1l21.77,0l0,22l-21.77,0l0,-22z" id="svg_13"/>
   <g fill-rule="nonzero" id="svg_14">
    <path d="m22.66,7.6s-0.2,-1.5 -0.86,-2.17c-0.83,-0.87 -1.75,-0.88 -2.18,-0.93c-3.04,-0.22 -7.6,-0.2 -7.6,-0.2s-4.56,-0.02 -7.6,0.2c-0.43,0.05 -1.35,0.06 -2.18,0.93c-0.65,0.67 -0.86,2.18 -0.86,2.18s-0.22,1.79 -0.26,3.57l0,1.66c0.04,1.78 0.26,3.55 0.26,3.55s0.2,1.5 0.86,2.18c0.83,0.87 1.9,0.84 2.4,0.94c1.7,0.15 7.2,0.2 7.38,0.2c0,0 4.57,0 7.6,-0.22c0.43,-0.05 1.35,-0.06 2.18,-0.93c0.65,-0.67 0.86,-2.18 0.86,-2.18s0.22,-1.77 0.24,-3.55l0,-1.66c-0.02,-1.78 -0.24,-3.55 -0.24,-3.55l0,-0.02z" fill="#F00" id="svg_15"/>
    <path d="m9.8,8.9l0,6.18l5.84,-3.1" fill="#FAFAFA" id="svg_16"/>
    <path d="m9.8,8.88l5.13,3.48l0.73,-0.38" fill="#000" fill-opacity="0.12" id="svg_17"/>
    <path d="m22.66,7.6s-0.2,-1.5 -0.86,-2.17c-0.83,-0.87 -1.75,-0.88 -2.18,-0.93c-3.04,-0.22 -7.6,-0.2 -7.6,-0.2s-4.56,-0.02 -7.6,0.2c-0.43,0.05 -1.35,0.06 -2.18,0.93c-0.65,0.67 -0.86,2.18 -0.86,2.18s-0.22,1.79 -0.26,3.57l0,0.1c0.04,-1.76 0.26,-3.54 0.26,-3.54s0.2,-1.5 0.86,-2.17c0.83,-0.88 1.75,-0.88 2.18,-0.93c3.04,-0.22 7.6,-0.2 7.6,-0.2s4.56,-0.02 7.6,0.2c0.43,0.05 1.35,0.05 2.18,0.93c0.65,0.66 0.86,2.17 0.86,2.17s0.22,1.78 0.23,3.55l0,-0.1c0,-1.8 -0.23,-3.56 -0.23,-3.56l0,-0.03z" fill="#FFF" fill-opacity="0.2" id="svg_18"/>
    <path d="m22.66,16.4s-0.2,1.5 -0.86,2.17c-0.83,0.87 -1.75,0.88 -2.18,0.93c-3.04,0.22 -7.6,0.2 -7.6,0.2s-4.56,0.02 -7.6,-0.2c-0.43,-0.05 -1.35,-0.06 -2.18,-0.93c-0.65,-0.67 -0.86,-2.18 -0.86,-2.18s-0.22,-1.8 -0.26,-3.57l0,-0.1c0.04,1.76 0.26,3.54 0.26,3.54s0.2,1.5 0.86,2.17c0.83,0.88 1.75,0.88 2.18,0.93c3.04,0.22 7.6,0.2 7.6,0.2s4.56,0.02 7.6,-0.2c0.43,-0.05 1.35,-0.05 2.18,-0.93c0.65,-0.66 0.86,-2.17 0.86,-2.17s0.22,-1.78 0.23,-3.55l0,0.1c0,1.8 -0.23,3.56 -0.23,3.56l0,0.03z" fill="#3E2723" fill-opacity="0.2" id="svg_19"/>
    <path d="m9.8,15.08l0,0.1l5.84,-3.08l0,-0.12" fill="#FFF" fill-opacity="0.2" id="svg_20"/>
    <path d="m9.8,8.9l0,-0.13l5.84,3.1l0,0.1" fill="#3E2723" fill-opacity="0.2" id="svg_21"/>
    <path d="m21.66,3.4s-0.2,-1.5 -0.86,-2.18c-0.83,-0.87 -1.75,-0.87 -2.18,-0.92c-3.04,-0.23 -7.6,-0.2 -7.6,-0.2s-4.56,-0.03 -7.6,0.2c-0.43,0.05 -1.35,0.05 -2.18,0.92c-0.65,0.68 -0.86,2.18 -0.86,2.18s-0.22,1.77 -0.26,3.55l0,1.65c0.04,1.8 0.26,3.56 0.26,3.56s0.2,1.52 0.86,2.18c0.83,0.87 1.9,0.85 2.4,0.94c1.7,0.16 7.2,0.2 7.38,0.2c0,0 4.57,0 7.6,-0.2c0.43,-0.06 1.35,-0.07 2.18,-0.94c0.65,-0.66 0.86,-2.18 0.86,-2.18s0.22,-1.77 0.24,-3.55l0,-1.64c-0.02,-1.78 -0.24,-3.55 -0.24,-3.55l0,-0.02z" fill="url(#a_yt101)" fill-opacity="0.1" id="svg_22" transform="translate(1 4.208)"/>
   </g>
  </g>
 </g>
</svg>