<?xml version="1.0"?>
<svg width="24" height="24" xmlns="http://www.w3.org/2000/svg" xmlns:svg="http://www.w3.org/2000/svg" display="inherit">
 <g class="layer">
  <title>Layer 1</title>
  <path d="m21.45,13.19c0,-0.08 0,-0.15 0,-0.22c-0.01,-0.86 -0.5,-5 -0.78,-5.74c-0.32,-0.85 -0.76,-1.5 -1.31,-1.91c-0.9,-0.67 -1.66,-0.82 -2.6,-0.84l-0.02,0c-0.4,0 -3.01,0.32 -5.2,0.62c-2.2,0.3 -4.95,0.7 -5.6,0.94c-0.9,0.33 -1.62,0.77 -2.19,1.33c-1.05,1.04 -1.18,2.11 -1.04,3.51c0.1,1.09 0.69,5.37 1.02,6.35c0.45,1.32 1.33,2.12 2.47,2.24c0.28,0.03 0.55,0.05 0.82,0.05c1,0 1.8,-0.21 2.72,-0.46c1.45,-0.39 3.25,-0.87 6.97,-0.87l0.09,0l0.02,0c0.91,0 3.14,-0.2 4.16,-2.07c0.52,-1 0.49,-2.21 0.47,-2.93z" fill="#FF0000" id="svg_5"/>
  <path d="m22.05,13.26c0,-0.08 0,-0.16 -0.01,-0.24c-0.01,-0.92 -0.54,-5.32 -0.83,-6.11c-0.34,-0.91 -0.81,-1.59 -1.4,-2.03c-0.94,-0.71 -1.76,-0.86 -2.75,-0.88l-0.02,0c-0.43,0 -3.21,0.34 -5.54,0.66c-2.33,0.32 -5.25,0.75 -5.95,1c-0.96,0.35 -1.73,0.82 -2.33,1.42c-1.12,1.1 -1.25,2.25 -1.11,3.74c0.11,1.16 0.73,5.71 1.08,6.75c0.48,1.41 1.41,2.25 2.63,2.38c0.3,0.03 0.58,0.05 0.87,0.05c1.07,0 1.91,-0.23 2.89,-0.49c1.54,-0.41 3.46,-0.93 7.41,-0.93l0.1,0l0.02,0c0.97,0 3.34,-0.21 4.42,-2.2c0.57,-1.06 0.54,-2.35 0.52,-3.12zm-1.4,2.65c-0.82,1.51 -2.75,1.68 -3.56,1.68l-0.1,0c-4.09,0 -6.07,0.53 -7.67,0.96c-0.95,0.25 -1.7,0.45 -2.63,0.45c-0.25,0 -0.5,-0.01 -0.76,-0.04c-1.04,-0.11 -1.54,-0.99 -1.79,-1.71c-0.3,-0.88 -0.91,-5.21 -1.04,-6.53c-0.14,-1.47 0.06,-2.18 0.82,-2.93c0.5,-0.5 1.15,-0.89 1.97,-1.19c0.17,-0.06 1.1,-0.32 5.74,-0.95c2.63,-0.36 5.07,-0.64 5.42,-0.65c0.83,0.02 1.43,0.13 2.17,0.69c0.43,0.32 0.79,0.86 1.06,1.58c0.22,0.58 0.76,4.78 0.77,5.77l0.01,0.25c0.01,0.67 0.04,1.79 -0.41,2.62z" fill="#000" id="svg_6"/>
  <path d="m11.65,14.76c-0.48,0.36 -0.8,0.45 -1.01,0.45c-0.16,0 -0.25,-0.05 -0.3,-0.08c-0.34,-0.18 -0.42,-0.61 -0.5,-1.2l-0.01,-0.1c-0.04,-0.31 -0.26,-2.1 -0.38,-3.16l-0.09,-0.73c-0.04,-0.28 -0.1,-0.75 0.24,-1c0.32,-0.23 0.75,-0.09 0.96,-0.03c0.53,0.17 3.6,1.23 4.59,1.73c0.21,0.09 0.67,0.28 0.68,0.83c0.01,0.5 -0.38,0.74 -0.53,0.82l-3.65,2.47z" fill="#000" id="svg_7"/>
  <path d="m10.36,9.89c0,0 0.5,4.08 0.51,4.19c0.06,-0.04 3.79,-2.58 3.79,-2.58c-0.89,-0.43 -3.53,-1.36 -4.3,-1.61z" fill="#FFF" id="svg_8"/>
 </g>
</svg>